<?xml version="1.0" encoding="UTF-8" standalone="no"?>
<!-- Created with Inkscape (http://www.inkscape.org/) -->

<svg
   width="20.539mm"
   height="16.115mm"
   viewBox="0 0 20.538999 16.115"
   version="1.1"
   id="svg5"
   xml:space="preserve"
   inkscape:version="1.2.2 (b0a8486541, 2022-12-01)"
   sodipodi:docname="ara-r.svg"
   xmlns:inkscape="http://www.inkscape.org/namespaces/inkscape"
   xmlns:sodipodi="http://sodipodi.sourceforge.net/DTD/sodipodi-0.dtd"
   xmlns="http://www.w3.org/2000/svg"
   xmlns:svg="http://www.w3.org/2000/svg"><sodipodi:namedview
     id="namedview7"
     pagecolor="#505050"
     bordercolor="#ffffff"
     borderopacity="1"
     inkscape:showpageshadow="0"
     inkscape:pageopacity="0"
     inkscape:pagecheckerboard="1"
     inkscape:deskcolor="#505050"
     inkscape:document-units="mm"
     showgrid="false"
     inkscape:zoom="6.1730319"
     inkscape:cx="16.442488"
     inkscape:cy="21.707323"
     inkscape:window-width="1366"
     inkscape:window-height="699"
     inkscape:window-x="0"
     inkscape:window-y="0"
     inkscape:window-maximized="1"
     inkscape:current-layer="layer1" /><defs
     id="defs2" /><g
     inkscape:label="Calque 1"
     inkscape:groupmode="layer"
     id="layer1"
     transform="translate(-0.03639271,-0.0225)"><a
       id="a4594"
       transform="translate(-9.9697408,-15.976331)"><path
         id="path233-3"
         style="fill:#000000;stroke:none;stroke-width:0.264583px;stroke-linecap:butt;stroke-linejoin:miter;stroke-opacity:1"
         d="m 13.888672,16.96875 c -0.245819,0.532327 -1.339642,-0.432006 -1.417777,0.1277 -0.07028,0.516042 0.253114,1.436286 -0.595895,1.15355 -0.883024,-0.271234 -0.433847,0.739189 -0.50149,1.252101 -0.152751,0.67687 0.238896,0.879349 0.860865,0.882665 0.03818,0.588272 0.520098,1.352961 -0.257525,1.616902 -0.821011,0.290171 -0.282804,0.756366 0.101275,1.20341 0.112135,0.640881 -0.117264,1.070981 -0.640625,1.402344 -0.399208,0.641974 -0.848134,1.266618 -0.828343,2.058624 -0.245696,0.802099 0.204745,1.571273 0.334202,2.355438 0.704379,-0.075 1.531474,0.05674 2.15608,-0.157336 0.316184,-0.65871 0.64096,-1.156063 1.037038,-0.253695 0.351077,0.815216 0.672906,0.451007 0.989775,-0.15527 0.340707,-0.482402 0.754298,-1.356432 0.801035,-0.265909 0.626225,0.114536 1.565393,-0.291272 1.863905,0.51289 0.349549,0.711075 0.415501,1.647202 1.241611,1.979449 0.469827,0.639344 0.988729,0.0463 1.494635,-0.218088 0.413962,0.301493 0.944147,1.138783 1.041913,0.170462 0.425374,0.593815 0.84201,-0.068 1.363185,0.04875 0.546578,0.32086 1.082864,0.668611 1.626058,0.998909 0.306418,-0.468672 0.613953,-0.936613 0.921875,-1.404297 -0.243287,-0.346148 -1.267064,-0.843217 -0.978516,-1.107422 0.972747,0.245082 -0.04177,-1.217916 0.840396,-1.012793 0.864076,0.256896 0.693531,-0.672483 1.013211,-1.076673 0.718675,-0.155277 1.437422,-0.310225 2.156159,-0.465222 -0.500596,-0.312072 -1.101339,-0.61825 -1.541016,-0.933593 0.563764,0.382511 1.347886,0.15752 1.951991,-0.04651 0.671012,-0.07113 0.871955,-0.680428 1.153478,-1.199585 -0.07472,-0.645065 0.05907,-1.385599 -0.596463,-1.761033 -0.745697,-0.427435 -0.523425,-0.860061 0.08093,-1.293203 0.5659,-0.431496 -0.602887,-0.815622 -0.828995,-1.226012 -0.527945,-0.34346 0.204208,-1.166959 -0.577078,-1.404983 -0.42747,-0.636344 -0.936615,-0.505551 -1.475798,-0.07393 -0.501561,-0.03045 -0.715417,1.423507 -0.853113,0.848642 -0.04998,-0.395259 0.515034,-1.676674 -0.02938,-1.363851 -0.493005,0.172848 -0.967898,0.828521 -1.485723,0.416945 -0.604062,0.407341 -1.093818,0.335684 -1.436889,-0.336005 -0.290371,-0.575075 -1.002918,-0.305857 -1.524049,-0.421808 -0.231328,0.354229 -0.218135,1.467346 -0.607207,1.239499 -0.492647,0.166962 -1.310379,-0.117481 -1.529511,0.426517 -0.0099,0.750653 -0.990814,0.621296 -1.316364,0.409786 -0.05004,-0.569763 0.265102,-1.308809 -0.409077,-1.588681 -0.564732,-0.422035 -0.739071,-1.171338 -1.128075,-1.741027 -0.354724,0.502564 -0.798739,1.072918 -1.380411,0.485988 -0.438234,-0.183198 -0.841954,-0.872635 -1.090292,-0.08364 z" /><path
         style="fill:#ff6600;stroke:#ffffff;stroke-width:0.264583px;stroke-linecap:butt;stroke-linejoin:miter;stroke-opacity:1"
         d="m 12.99196,21.639609 -0.304863,-1.70919 -0.774989,-0.1432 -0.04297,-1.00832 1.096291,0.004 0.02379,-1.248 1.012359,0.20045 0.321591,-0.47042 0.676492,0.42946 0.852286,0.2704 0.410567,-0.47849 0.512959,0.92785 0.607991,0.49277 -0.03331,1.59309 1.932855,0.0913 0.406964,-0.88502 0.853728,-0.0935 0.491757,0.9055 0.686877,-2.14398 0.598906,0.0388 0.978902,1.14576 0.997506,-0.40567 0.439412,0.19627 0.631066,-0.34798 -0.115658,0.74629 0.125752,0.5069 0.873341,-0.008 0.47517,-0.99447 0.73029,-0.40538 0.5715,0.49767 -0.0878,0.81277 1.09918,0.99304 -0.91329,0.9254 1.33063,1.3253 0.0731,0.91775 -0.35592,0.65169 -0.81637,0.31049 -0.89382,0.0728 -0.53704,-0.30298 -0.64217,0.47517 0.17853,0.49378 0.61116,0.36182 -1.25953,0.27213 -0.226557,0.95496 -1.198536,0.0858 0.03836,0.95092 -0.605973,0.0815 0.0011,0.78494 0.9603,0.85618 -0.389802,0.59141 -1.257375,-0.77816 -0.604096,-0.1047 -0.442585,0.25684 -0.781621,-0.5219 -0.176948,0.47301 -0.534011,-0.47834 -1.031108,0.60554 -0.725525,-0.50849 -0.637987,-1.58214 -0.88084,-0.97212 -0.461907,-0.0769 0.01008,0.39686 -0.529109,0.004 -0.170889,-0.69596 -0.672166,0.0162 -0.923237,1.3214 -0.976884,-1.26689 -0.855747,1.38053 -1.392931,0.0483 -0.299381,-1.20445 0.197713,-1.32025 0.640582,-1.07365 0.685723,-0.51238 0.0362,-1.34202 -0.420518,-0.52421 0.873194,-0.64808 z"
         id="path233" /></a></g></svg>
